<?xml version="1.0" encoding="UTF-8"?>
<svg id="Layer_1" data-name="Layer 1" xmlns="http://www.w3.org/2000/svg" viewBox="0 0 101.14 34.88">
  <defs>
    <style>
      .cls-1, .cls-2 {
        fill: #f0efef;
      }

      .cls-3 {
        fill: #352f81;
      }

      .cls-4 {
        fill: #f3e504;
      }

      .cls-2 {
        font-family: Chillax-Semibold, Chillax;
        font-size: 18px;
        font-weight: 600;
      }
    </style>
  </defs>
  <g>
    <rect class="cls-1" width="31.5" height="34.88" rx="11.25" ry="11.25"/>
    <g>
      <polygon class="cls-3" points="3.94 30.43 27.56 30.43 15.72 3.38 3.94 30.43"/>
      <path class="cls-4" d="m18.86,9.55c-.21-.07-.48-.12-2.24,0-.18.01-.47.03-.84.13-.17.04-.41.11-.7.25-.12.06-.34.19-.56.38-.41.35-.6.78-.7,1.02-.11.25-.27.7-.27,1.27,0,.27,0,.55.14.89.16.37.4.62.56.76.36.41.72.64.98.76.4.2,1.13.45,1.82.62.25.06.59.15.7.39.07.15.02.3,0,.36-.11.35-.48.58-1.27.9-.47.19-.84.31-1.29.46-1.13.37-1.47.46-2.06.7-.8.32-1.07.51-1.28.76-.14.16-.37.44-.38.83-.02.53.37.99.79,1.2.2.1.44.13.91.16.41.03,1.98.06,1.98.06,0,0,1.01-.07,1.08.08.05.1-.1.27-.16.33-.16.18-.37.26-.42.28-.3.11-1.85.67-2.35.87-.88.35-1.23.63-1.39.78-.2.18-.44.4-.57.76-.19.54,0,1.02.06,1.15.19.43.51.67.77.87.3.22.56.34.97.52.33.15.59.23,1,.37.88.29,1.06.29,1.38.51.2.14.46.32.57.64.17.5-.13,1.01-.29,1.27-.26.43-.44.45-.53.8-.09.34-.03.78.17.84.12.04.21-.07.81-.51.53-.39.52-.35.67-.49.34-.32.53-.66.63-.88.09-.2.22-.49.23-.89,0-.1,0-.41-.14-.77-.03-.08-.07-.19-.16-.33-.06-.09-.19-.29-.54-.56-.19-.15-.45-.32-.84-.51-.11-.05-.45-.21-.98-.38-.83-.26-1.14-.19-1.54-.5-.13-.1-.3-.26-.32-.47-.02-.4.55-.71.99-.96.53-.29.78-.31,1.59-.63.34-.13.61-.26,1.15-.51,2.01-.93,2.23-1.24,2.3-1.5.01-.05.11-.41-.08-.76-.44-.8-2.13-.82-2.2-.81-3.14.08-2.35.06-2.35.06-.23-.03-.51-.08-.53-.2-.02-.13.29-.27.69-.44.65-.28.98-.41,1.7-.64.32-.1,1.98-.61,2.69-1.39.07-.08.48-.52.51-1.05,0-.03,0-.07,0-.11,0-.11-.01-.49-.27-.88-.28-.43-.7-.64-1.08-.82-.55-.26-.65-.16-1.44-.45-.49-.18-.87-.32-1.27-.64-.3-.24-.7-.56-.7-1.01,0-.43.38-.74.42-.77.73-.58,1.77.01,2.66-.51.17-.1.34-.24.7-.38.27-.1.41-.12.58-.26.04-.04.31-.26.28-.49-.04-.29-.51-.44-.72-.51Z"/>
      <ellipse class="cls-3" cx="17.71" cy="9.97" rx=".25" ry=".09"/>
    </g>
  </g>
  <text class="cls-2" transform="translate(40.42 23.67)"><tspan x="0" y="0">AIDFM</tspan></text>
</svg>