<svg width="45" height="30" viewBox="0 0 45 30" fill="none" xmlns="http://www.w3.org/2000/svg">
<g id="Mask group">
<mask id="mask0_281_238" style="mask-type:alpha" maskUnits="userSpaceOnUse" x="0" y="0" width="45" height="30">
<rect id="Rectangle 8" width="45" height="30" rx="15" fill="#D9D9D9"/>
</mask>
<g mask="url(#mask0_281_238)">
<g id="&#240;&#159;&#166;&#134; icon &#34;Portugal&#34;">
<path id="Vector" d="M0 0H45V30H0V0Z" fill="#FF0000"/>
<path id="Vector_2" d="M0 0H18V30H0V0Z" fill="#006600"/>
<g id="Group">
<g id="Vector_3">
<path fill-rule="evenodd" clip-rule="evenodd" d="M23.8679 19.6529C21.6021 19.5846 11.2124 13.0994 11.1411 12.0666L11.7148 11.1099C12.7454 12.6073 23.3668 18.9144 24.4101 18.6909L23.8678 19.6526" fill="#FFFF00"/>
<path d="M23.8679 19.6529C21.6021 19.5846 11.2124 13.0994 11.1411 12.0666L11.7148 11.1099C12.7454 12.6073 23.3668 18.9144 24.4101 18.6909L23.8678 19.6526" stroke="#242329" stroke-width="0.0684857" stroke-linecap="round" stroke-linejoin="round"/>
</g>
<path id="Vector_4" fill-rule="evenodd" clip-rule="evenodd" d="M11.5941 10.9798C11.3909 11.5269 14.3053 13.3287 17.8119 15.4614C21.3183 17.5939 24.3417 18.9118 24.5658 18.7228C24.5795 18.6984 24.6761 18.5323 24.6672 18.5336C24.6252 18.5969 24.523 18.6169 24.3634 18.5709C23.4161 18.2977 20.9453 17.1635 17.8854 15.308C14.8255 13.4522 12.1633 11.7422 11.7496 11.0156C11.7208 10.9652 11.7003 10.8733 11.7044 10.8019L11.6944 10.8018L11.6063 10.9557L11.5942 10.9799L11.5941 10.9798ZM23.9211 19.6828C23.8827 19.7526 23.8111 19.7549 23.675 19.7399C22.8275 19.6461 20.2558 18.3956 17.2129 16.574C13.6721 14.4545 10.7479 12.5232 11.0651 12.0185L11.1514 11.8659L11.1684 11.8712C10.8831 12.7265 16.9395 16.1895 17.2961 16.4103C20.8004 18.5813 23.7547 19.8491 24.0161 19.5197L23.921 19.6832V19.6831L23.9211 19.6828Z" fill="#FFFF00" stroke="#242329" stroke-width="0.0684857" stroke-linecap="round" stroke-linejoin="round"/>
<path id="Vector_5" fill-rule="evenodd" clip-rule="evenodd" d="M18.0128 12.692C20.2805 12.674 23.079 12.3821 24.6895 11.7402L24.3425 11.1765C23.3906 11.7033 20.5767 12.0498 17.9936 12.1016C14.9384 12.0735 12.7818 11.789 11.7013 11.064L11.3738 11.6643C13.3601 12.5048 15.3955 12.6833 18.0128 12.692Z" fill="#FFFF00" stroke="#242329" stroke-width="0.0684857" stroke-linecap="round" stroke-linejoin="round"/>
<path id="Vector_6" fill-rule="evenodd" clip-rule="evenodd" d="M24.7832 11.7532C24.7278 11.8418 23.6775 12.2041 22.1302 12.4714C21.0811 12.6313 19.7127 12.768 18.0049 12.7697C16.3825 12.7712 15.057 12.6557 14.0536 12.5197C12.4294 12.265 11.5911 11.9107 11.2812 11.7855C11.3109 11.7265 11.3299 11.6852 11.3585 11.6302C12.2506 11.9854 13.0928 12.1996 14.0794 12.3514C15.0763 12.4864 16.3857 12.6035 18.0001 12.602C19.6999 12.6003 21.0533 12.4532 22.0963 12.298C23.683 12.0421 24.5497 11.7127 24.6714 11.5598L24.7834 11.7532H24.7833H24.7832ZM24.4787 11.1815C24.3067 11.3196 23.4498 11.6235 21.9423 11.8643C20.9361 12.0085 19.6569 12.1375 18.0224 12.1391C16.4696 12.1406 15.201 12.036 14.236 11.8954C12.705 11.6955 11.8901 11.3348 11.5963 11.2296C11.6255 11.1791 11.6553 11.1289 11.6859 11.0786C11.9145 11.1937 12.7008 11.5129 14.2528 11.7328C15.2068 11.868 16.4774 11.9688 18.0225 11.9673C19.6492 11.9656 20.9139 11.834 21.9137 11.6906C23.4291 11.4821 24.2445 11.0946 24.3683 10.9976L24.4787 11.1814L24.4787 11.1815Z" fill="#FFFF00" stroke="#242329" stroke-width="0.0684857" stroke-linecap="round" stroke-linejoin="round"/>
<g id="Vector_7">
<path fill-rule="evenodd" clip-rule="evenodd" d="M10.566 15.4244C11.9608 16.1746 15.0589 16.5527 17.9905 16.5787C20.6599 16.583 24.1374 16.1661 25.4378 15.477L25.402 14.7261C24.9952 15.3619 21.2686 15.9717 17.9616 15.9468C14.6546 15.9218 11.5837 15.4111 10.5601 14.7498L10.566 15.4242" fill="#FFFF00"/>
<path d="M10.566 15.4244C11.9608 16.1746 15.0589 16.5527 17.9905 16.5787C20.6599 16.583 24.1374 16.1661 25.4378 15.477L25.402 14.7261C24.9952 15.3619 21.2686 15.9717 17.9616 15.9468C14.6546 15.9218 11.5837 15.4111 10.5601 14.7498L10.566 15.4242" stroke="#242329" stroke-width="0.0684857" stroke-linecap="round" stroke-linejoin="round"/>
</g>
<path id="Vector_8" fill-rule="evenodd" clip-rule="evenodd" d="M25.509 15.3162L25.5091 15.4952C25.3137 15.7289 24.0882 16.0821 22.5513 16.3309C21.3817 16.5102 19.8568 16.6455 17.9567 16.6455C16.1515 16.6455 14.712 16.5167 13.5956 16.3454C11.8309 16.0884 10.7022 15.6384 10.4756 15.5041L10.4766 15.2952C11.1572 15.7477 13.0012 16.0787 13.6204 16.18C14.7295 16.3503 16.1605 16.478 17.9566 16.478C19.8478 16.478 21.3642 16.3437 22.5265 16.1656C23.629 16.0063 25.1998 15.5921 25.509 15.3163L25.509 15.3162ZM25.5098 14.6793L25.5099 14.8583C25.3144 15.0919 24.0889 15.4451 22.5521 15.6938C21.3825 15.8731 19.8576 16.0084 17.9574 16.0084C16.1523 16.0084 14.7127 15.8798 13.5963 15.7083C11.8317 15.4514 10.7029 15.0015 10.4763 14.8671L10.4773 14.6582C11.1579 15.1106 13.0019 15.4417 13.6211 15.5429C14.7302 15.7133 16.1612 15.8411 17.9574 15.8411C19.8486 15.8411 21.3649 15.7067 22.5272 15.5284C23.6298 15.3691 25.2005 14.9549 25.5097 14.6791L25.5098 14.6793Z" fill="#FFFF00" stroke="#242329" stroke-width="0.0684857" stroke-linecap="round" stroke-linejoin="round"/>
<path id="Vector_9" fill-rule="evenodd" clip-rule="evenodd" d="M17.9843 19.524C14.7764 19.5049 12.0277 18.6496 11.4473 18.5082L11.8705 19.1708C12.8958 19.602 15.5773 20.2448 18.015 20.1736C20.4528 20.1025 22.5833 19.9136 24.0846 19.1828L24.5186 18.4961C23.4955 18.978 20.0135 19.519 17.9843 19.524Z" fill="#FFFF00" stroke="#242329" stroke-width="0.0684857" stroke-linecap="round" stroke-linejoin="round"/>
<path id="Vector_10" fill-rule="evenodd" clip-rule="evenodd" d="M24.2475 19.029C24.1837 19.1264 24.1187 19.2227 24.0528 19.3162C23.3446 19.5659 22.2288 19.828 21.758 19.9045C20.7962 20.1027 19.3081 20.249 17.9874 20.2497C15.1457 20.2081 12.8196 19.6518 11.7252 19.1773L11.6369 19.0255L11.6514 19.0026L11.8011 19.0607C13.7472 19.757 15.9329 20.0348 18.0035 20.0846C19.3188 20.0893 20.6356 19.9339 21.7004 19.7434C23.3332 19.4163 23.9934 19.1697 24.196 19.0579L24.2475 19.029ZM24.6238 18.4083C24.6254 18.4103 24.6271 18.4121 24.6287 18.4142C24.581 18.4946 24.5318 18.5765 24.4815 18.6588C24.1038 18.7938 23.0789 19.0937 21.5821 19.303C20.5959 19.4374 19.9829 19.5675 18.0212 19.6056C14.345 19.512 11.9649 18.7932 11.3995 18.6159L11.3157 18.4552C13.4461 19.0114 15.6223 19.3996 18.0213 19.4393C19.8161 19.4011 20.5797 19.2689 21.5577 19.1355C23.303 18.8642 24.1824 18.5768 24.4463 18.4939C24.443 18.4891 24.4391 18.4841 24.4347 18.4789L24.624 18.4082L24.6238 18.4083Z" fill="#FFFF00" stroke="#242329" stroke-width="0.0657367" stroke-linecap="round" stroke-linejoin="round"/>
<path id="Vector_11" fill-rule="evenodd" clip-rule="evenodd" d="M24.6622 14.8321C24.6726 16.9424 23.5927 18.836 22.7229 19.6715C21.4923 20.8534 19.8606 21.6137 17.9552 21.6487C15.8274 21.6878 13.8212 20.3006 13.2831 19.6913C12.231 18.4999 11.3744 16.987 11.3469 14.948C11.4772 12.6449 12.3814 11.0405 13.692 9.94037C15.0027 8.8402 16.7478 8.3044 18.2011 8.34272C19.878 8.38697 21.8367 9.20957 23.1902 10.8426C24.0769 11.9126 24.4609 13.0737 24.6622 14.8321ZM17.9733 7.60645C22.0596 7.60645 25.4205 10.9318 25.4205 15.0092C25.4205 19.0865 22.0596 22.412 17.9733 22.412C13.8869 22.412 10.554 19.0865 10.554 15.0092C10.554 10.9318 13.8869 7.60645 17.9733 7.60645Z" fill="#FFFF00" stroke="#242329" stroke-width="0.0684857" stroke-linecap="round" stroke-linejoin="round"/>
<path id="Vector_12" fill-rule="evenodd" clip-rule="evenodd" d="M17.9932 7.58105C22.0833 7.58105 25.419 10.9173 25.419 15.0077C25.419 19.0981 22.0832 22.4342 17.9932 22.4342C13.9032 22.4342 10.5674 19.0981 10.5674 15.0077C10.5674 10.9173 13.9032 7.58105 17.9932 7.58105ZM10.7308 15.0077C10.7308 19.0022 14.011 22.2709 17.9932 22.2709C21.9755 22.2709 25.2557 19.0022 25.2557 15.0077C25.2557 11.0131 21.9754 7.74443 17.9932 7.74443C14.011 7.74443 10.7308 11.0132 10.7308 15.0077Z" fill="#FFFF00" stroke="#242329" stroke-width="0.0684857" stroke-linecap="round" stroke-linejoin="round"/>
<path id="Vector_13" fill-rule="evenodd" clip-rule="evenodd" d="M17.9992 8.19824C21.7291 8.19824 24.8012 11.2598 24.8012 15.001C24.8012 18.7423 21.729 21.8038 17.9992 21.8038C14.2695 21.8038 11.1973 18.7423 11.1973 15.001C11.1973 11.2598 14.2696 8.19824 17.9992 8.19824ZM11.3606 15.001C11.3606 18.6524 14.359 21.6403 17.9992 21.6403C21.6394 21.6403 24.6379 18.6524 24.6379 15.001C24.6379 11.3495 21.6395 8.36162 17.9992 8.36162C14.359 8.36162 11.3606 11.3495 11.3606 15.001Z" fill="#FFFF00" stroke="#242329" stroke-width="0.0684857" stroke-linecap="round" stroke-linejoin="round"/>
<path id="Vector_14" fill-rule="evenodd" clip-rule="evenodd" d="M18.2985 7.55078H17.6621L17.6629 22.4728H18.3015L18.2985 7.55078Z" fill="#FFFF00" stroke="#242329" stroke-width="0.0684857" stroke-linecap="round" stroke-linejoin="round"/>
<path id="Vector_15" fill-rule="evenodd" clip-rule="evenodd" d="M18.2349 7.46582H18.3969L18.3982 22.5596H18.2361L18.2349 7.46582ZM17.6033 7.46596H17.7665L17.7667 22.5597H17.6034V7.46596H17.6033Z" fill="#FFFF00" stroke="#242329" stroke-width="0.0684857" stroke-linecap="round" stroke-linejoin="round"/>
<path id="Vector_16" fill-rule="evenodd" clip-rule="evenodd" d="M25.4243 15.2951V14.7434L24.9751 14.3249L22.4251 13.6499L18.7501 13.2749L14.3251 13.4999L11.1751 14.2499L10.5391 14.7209V15.2727L12.1501 14.5499L15.9751 13.9499H19.6501L22.3501 14.2499L24.2251 14.6999L25.4243 15.2951Z" fill="#FFFF00" stroke="#242329" stroke-width="0.0684857" stroke-linecap="round" stroke-linejoin="round"/>
<path id="Vector_17" fill-rule="evenodd" clip-rule="evenodd" d="M17.9963 13.8577C19.75 13.8544 21.4516 14.0238 22.8012 14.2866C24.1939 14.565 25.174 14.9133 25.5091 15.3044L25.5087 15.4981C25.1045 15.0113 23.7857 14.6545 22.7698 14.4505C21.4305 14.19 19.7404 14.0218 17.9963 14.025C16.156 14.0284 14.4423 14.2027 13.1225 14.4602C12.0635 14.6704 10.6512 15.0878 10.4749 15.4996V15.2979C10.5717 15.0129 11.6233 14.587 13.0987 14.2916C14.4283 14.0323 16.1452 13.861 17.9963 13.8577ZM17.9971 13.2207C19.7508 13.2176 21.4523 13.387 22.8019 13.6497C24.1946 13.9282 25.1747 14.2764 25.5098 14.6675L25.5094 14.8612C25.1053 14.3746 23.7865 14.0177 22.7706 13.8137C21.4312 13.5531 19.7411 13.3849 17.9971 13.3882C16.1567 13.3915 14.4514 13.566 13.1314 13.8233C12.1095 14.0171 10.6395 14.4511 10.4755 14.8628V14.661C10.5724 14.3791 11.6453 13.9379 13.0994 13.6547C14.4291 13.3955 16.1459 13.2242 17.9971 13.2207Z" fill="#FFFF00" stroke="#242329" stroke-width="0.0684857" stroke-linecap="round" stroke-linejoin="round"/>
<g id="Vector_18">
<path fill-rule="evenodd" clip-rule="evenodd" d="M17.961 9.97203C20.7246 9.9582 23.1352 10.3584 24.2381 10.9234L24.6404 11.6193C23.6818 11.1027 21.0812 10.5656 17.965 10.6459C15.426 10.6615 12.713 10.9254 11.3518 11.6517L11.8321 10.8485C12.9492 10.2692 15.5837 9.97525 17.9611 9.97218" fill="#FFFF00"/>
<path d="M17.961 9.97203C20.7246 9.9582 23.1352 10.3584 24.2381 10.9234L24.6404 11.6193C23.6818 11.1027 21.0812 10.5656 17.965 10.6459C15.426 10.6615 12.713 10.9254 11.3518 11.6517L11.8321 10.8485C12.9492 10.2692 15.5837 9.97525 17.9611 9.97218" stroke="#242329" stroke-width="0.0684857" stroke-linecap="round" stroke-linejoin="round"/>
</g>
<path id="Vector_19" fill-rule="evenodd" clip-rule="evenodd" d="M17.9978 10.5466C19.5741 10.5424 21.0972 10.6313 22.3085 10.8499C23.4366 11.0598 24.5124 11.375 24.6662 11.5444L24.7855 11.7552C24.4114 11.5109 23.4804 11.2389 22.2851 11.0122C21.0846 10.7866 19.5626 10.7118 17.9951 10.7159C16.2159 10.7099 14.8337 10.8038 13.6474 11.0106C12.3928 11.2454 11.5223 11.5807 11.3076 11.7401L11.4245 11.5173C11.8417 11.3045 12.5037 11.0479 13.6162 10.8476C14.843 10.6235 16.2399 10.5563 17.9979 10.5466L17.9978 10.5466ZM17.9972 9.91029C19.5056 9.90632 20.9951 9.99039 22.1561 10.1991C23.0717 10.3773 23.9773 10.6556 24.3089 10.9033L24.4833 11.1804C24.1868 10.8508 23.0706 10.5385 22.0852 10.3635C20.9332 10.1648 19.5056 10.0862 17.9971 10.0736C16.414 10.078 14.951 10.175 13.8157 10.3817C12.7327 10.5878 12.0337 10.8318 11.738 11.0224L11.8914 10.7909C12.2995 10.5761 12.9588 10.3787 13.7891 10.2174C14.9328 10.0092 16.4048 9.91472 17.9972 9.91029Z" fill="#FFFF00" stroke="#242329" stroke-width="0.0684857" stroke-linecap="round" stroke-linejoin="round"/>
<g id="Vector_20">
<path fill-rule="evenodd" clip-rule="evenodd" d="M21.6863 18.0945C20.32 17.8394 18.9512 17.8024 17.9951 17.8136C13.3895 17.8676 11.9018 18.7593 11.7202 19.0293L11.376 18.4682C12.5485 17.6183 15.0565 17.1417 18.02 17.1904C19.5589 17.2156 20.8868 17.3178 22.0039 17.5342L21.6862 18.0946" fill="#FFFF00"/>
<path d="M21.6863 18.0945C20.32 17.8394 18.9512 17.8024 17.9951 17.8136C13.3895 17.8676 11.9018 18.7593 11.7202 19.0293L11.376 18.4682C12.5485 17.6183 15.0565 17.1417 18.02 17.1904C19.5589 17.2156 20.8868 17.3178 22.0039 17.5342L21.6862 18.0946" stroke="#242329" stroke-width="0.0684857" stroke-linecap="round" stroke-linejoin="round"/>
</g>
<path id="Vector_21" fill-rule="evenodd" clip-rule="evenodd" d="M17.9684 17.7346C19.2496 17.7537 20.5071 17.8066 21.7209 18.033L21.633 18.1881C20.5057 17.98 19.3039 17.9004 17.9728 17.9069C16.273 17.8936 14.5539 18.0523 13.0572 18.4819C12.5849 18.6133 11.8031 18.9169 11.7234 19.1678L11.6359 19.0236C11.6611 18.8753 12.1337 18.5676 13.017 18.3194C14.7313 17.8284 16.3349 17.7457 17.9684 17.7344L17.9684 17.7346ZM18.0266 17.0899C19.3539 17.1147 20.7247 17.176 22.0571 17.44L21.9655 17.6015C20.7624 17.3626 19.6128 17.283 18.0344 17.2587C16.3293 17.2618 14.5206 17.3834 12.876 17.8615C12.3451 18.0162 11.4288 18.3505 11.3982 18.6153L11.3108 18.4603C11.3307 18.2199 12.1239 17.9062 12.8376 17.6986C14.4948 17.2168 16.3082 17.093 18.0266 17.0899Z" fill="#FFFF00" stroke="#242329" stroke-width="0.0657367" stroke-linecap="round" stroke-linejoin="round"/>
<path id="Vector_22" fill-rule="evenodd" clip-rule="evenodd" d="M24.5686 18.5533L24.0152 19.412L22.4251 17.9998L18.3001 15.2248L13.6501 12.6748L11.2358 11.8491L11.7503 10.8951L11.9251 10.7998L13.4251 11.1748L18.3751 13.7248L21.2251 15.5248L23.6251 17.2498L24.6001 18.3748L24.5686 18.5533Z" fill="#FFFF00" stroke="#242329" stroke-width="0.0684857" stroke-linecap="round" stroke-linejoin="round"/>
<g id="Vector_23">
<path fill-rule="evenodd" clip-rule="evenodd" d="M11.1489 11.8715C11.5724 11.5843 14.6844 12.9706 17.9406 14.9341C21.1881 16.9031 24.2913 19.1281 24.0112 19.5445L23.9191 19.6895L23.8768 19.7228C23.8859 19.7163 23.9326 19.6592 23.8722 19.5048C23.7339 19.0496 21.5326 17.293 17.8802 15.0877C14.3196 12.9645 11.3521 11.6849 11.0554 12.0507L11.1489 11.8715ZM24.6819 18.541C24.9497 18.0121 22.0632 15.8377 18.4845 13.7206C14.8236 11.6457 12.185 10.4243 11.703 10.7885L11.596 10.9834C11.595 10.9942 11.5999 10.9701 11.6225 10.9527C11.7101 10.8762 11.8554 10.8814 11.9209 10.8802C12.7508 10.8926 15.1209 11.9834 18.4464 13.8898C19.9035 14.7384 24.6017 17.7516 24.5838 18.599C24.585 18.6718 24.5898 18.6868 24.5624 18.7229L24.6819 18.541Z" fill="#FFFF00"/>
<path d="M24.6819 18.541C24.9497 18.0121 22.0632 15.8377 18.4845 13.7206C14.8236 11.6457 12.185 10.4243 11.703 10.7885L11.596 10.9834C11.595 10.9942 11.5999 10.9701 11.6225 10.9527C11.7101 10.8762 11.8554 10.8814 11.9209 10.8802C12.7508 10.8926 15.1209 11.9834 18.4464 13.8898C19.9035 14.7384 24.6017 17.7516 24.5838 18.599C24.585 18.6718 24.5898 18.6868 24.5624 18.7229L24.6819 18.541ZM24.6819 18.541L24.6819 18.5409M11.1489 11.8715C11.5724 11.5843 14.6844 12.9706 17.9406 14.9341C21.1881 16.9031 24.2913 19.1281 24.0112 19.5445L23.9191 19.6895L23.8768 19.7228C23.8859 19.7163 23.9326 19.6592 23.8722 19.5048C23.7339 19.0496 21.5326 17.293 17.8802 15.0877C14.3196 12.9645 11.3521 11.6849 11.0554 12.0507L11.1489 11.8715Z" stroke="#242329" stroke-width="0.0684857" stroke-linecap="round" stroke-linejoin="round"/>
</g>
</g>
<path id="Vector_24" d="M13.545 15.8257C13.545 17.0461 14.0447 18.1498 14.8543 18.9564C15.6654 19.7647 16.7677 20.2748 17.9899 20.2748C19.2185 20.2748 20.3335 19.7759 21.1411 18.9706C21.9488 18.1655 22.4494 17.0542 22.4496 15.8296H22.4494V9.89047L13.5439 9.87988L13.5449 15.8257L13.545 15.8257Z" fill="#F3F4F4" stroke="#242329" stroke-width="0.0801235"/>
<g id="Vector_25">
<path d="M13.7116 15.8338V15.8371C13.7116 17.0039 14.1947 18.0664 14.9697 18.8378C15.7462 19.6107 16.8157 20.0912 17.9857 20.0912C19.1618 20.0912 20.2291 19.6142 21.0024 18.8443C21.7755 18.0744 22.2547 17.0118 22.2548 15.841H22.2547V10.079L13.7167 10.0776L13.7114 15.8337M20.5381 11.8027L20.5384 15.4695L20.5353 15.8574C20.5353 15.9595 20.5292 16.0758 20.5173 16.1749C20.4479 16.7546 20.1813 17.2599 19.7864 17.653C19.3241 18.1132 18.6861 18.3986 17.9829 18.3986C17.2833 18.3986 16.6599 18.1033 16.1957 17.6411C15.7195 17.1671 15.4434 16.5172 15.4434 15.8451L15.4425 11.7934L20.538 11.8026L20.5381 11.8027Z" fill="#FF0000"/>
<path d="M13.7116 15.8338V15.8371C13.7116 17.0039 14.1947 18.0664 14.9697 18.8378C15.7462 19.6107 16.8157 20.0912 17.9857 20.0912C19.1618 20.0912 20.2291 19.6142 21.0024 18.8443C21.7755 18.0744 22.2547 17.0118 22.2548 15.841H22.2547V10.079L13.7167 10.0776L13.7114 15.8337M20.5381 11.8027L20.5384 15.4695L20.5353 15.8574C20.5353 15.9595 20.5292 16.0758 20.5173 16.1749C20.4479 16.7546 20.1813 17.2599 19.7864 17.653C19.3241 18.1132 18.6861 18.3986 17.9829 18.3986C17.2833 18.3986 16.6599 18.1033 16.1957 17.6411C15.7195 17.1671 15.4434 16.5172 15.4434 15.8451L15.4425 11.7934L20.538 11.8026L20.5381 11.8027Z" stroke="#242329" stroke-width="0.0606379"/>
</g>
<g id="a">
<g id="b">
<path id="Vector_26" d="M14.2642 11.5819C14.2743 11.1679 14.5681 11.0698 14.5702 11.0684C14.5723 11.067 14.8876 11.1739 14.8865 11.5858L14.2642 11.5819Z" fill="#FFFF00"/>
<path id="Vector_27" d="M14.0106 11.0767L13.9595 11.5525L14.27 11.5532C14.273 11.1595 14.5681 11.094 14.5752 11.0955C14.5819 11.0951 14.8744 11.1825 14.8822 11.5532H15.1935L15.1373 11.0737L14.0106 11.0766L14.0106 11.0767Z" fill="#FFFF00" stroke="#242329" stroke-width="0.0597606"/>
<path id="Vector_28" d="M13.9388 11.5542H15.2098C15.2366 11.5542 15.2584 11.5807 15.2584 11.613C15.2584 11.6453 15.2366 11.6716 15.2098 11.6716H13.9388C13.912 11.6716 13.8901 11.6453 13.8901 11.613C13.8901 11.5807 13.912 11.5542 13.9388 11.5542Z" fill="#FFFF00" stroke="#242329" stroke-width="0.0597606"/>
<path id="Vector_29" d="M14.4006 11.552C14.402 11.3036 14.5703 11.2333 14.5712 11.2334C14.5712 11.2334 14.7468 11.3059 14.7482 11.552H14.4006Z" fill="#FFFF00" stroke="#242329" stroke-width="0.0597606"/>
<path id="Vector_30" d="M13.9659 10.8784H15.1843C15.2099 10.8784 15.231 10.9023 15.231 10.9313C15.231 10.9603 15.2099 10.9841 15.1843 10.9841H13.9659C13.9402 10.9841 13.9192 10.9604 13.9192 10.9313C13.9192 10.9023 13.9402 10.8784 13.9659 10.8784Z" fill="#FFFF00" stroke="#242329" stroke-width="0.0597606"/>
<path id="Vector_31" d="M13.9912 10.9849H15.1565C15.1811 10.9849 15.2012 11.0086 15.2012 11.0376C15.2012 11.0668 15.1811 11.0905 15.1565 11.0905H13.9912C13.9666 11.0905 13.9465 11.0668 13.9465 11.0376C13.9465 11.0086 13.9666 10.9849 13.9912 10.9849Z" fill="#FFFF00" stroke="#242329" stroke-width="0.0597606"/>
<path id="Vector_32" d="M14.3678 10.1908L14.4598 10.1909V10.2563H14.5269V10.1895L14.6212 10.1898V10.2563H14.6885V10.1895H14.7828L14.7827 10.3404C14.7827 10.364 14.7636 10.3794 14.7415 10.3794H14.4107C14.3885 10.3794 14.368 10.3616 14.3679 10.3399L14.3677 10.1908L14.3678 10.1908Z" fill="#FFFF00" stroke="#242329" stroke-width="0.0597606"/>
<path id="Vector_33" d="M14.7143 10.3924L14.7351 10.8762L14.4124 10.875L14.4337 10.3911L14.7143 10.3924Z" fill="#FFFF00" stroke="#242329" stroke-width="0.0597606"/>
<path id="c" d="M14.3206 10.6167L14.3304 10.8775L14.021 10.8777L14.0297 10.6167L14.3206 10.6167Z" fill="#FFFF00" stroke="#242329" stroke-width="0.0597606"/>
<path id="c_2" d="M15.1162 10.6167L15.1261 10.8775L14.8167 10.8777L14.8254 10.6167L15.1162 10.6167Z" fill="#FFFF00" stroke="#242329" stroke-width="0.0597606"/>
<path id="d" d="M13.9725 10.4276L14.0625 10.4278V10.4932H14.1283V10.4263L14.2205 10.4266V10.4932H14.2864V10.4263L14.3787 10.4265L14.3786 10.5773C14.3786 10.6009 14.3599 10.6162 14.3383 10.6162H14.0146C13.9929 10.6162 13.9727 10.5986 13.9726 10.5768L13.9724 10.4276L13.9725 10.4276Z" fill="#FFFF00" stroke="#242329" stroke-width="0.0597606"/>
<path id="d_2" d="M14.7682 10.4276L14.8581 10.4278V10.4932H14.9239V10.4263L15.0161 10.4266V10.4932H15.0821V10.4263L15.1744 10.4265L15.1742 10.5773C15.1742 10.6009 15.1556 10.6162 15.134 10.6162H14.8102C14.7885 10.6162 14.7684 10.5986 14.7683 10.5768L14.7681 10.4276L14.7682 10.4276Z" fill="#FFFF00" stroke="#242329" stroke-width="0.0597606"/>
<path id="Vector_34" d="M14.5425 10.5457C14.5405 10.4987 14.6083 10.4982 14.6075 10.5457V10.661H14.5425L14.5425 10.5457Z" fill="#242329"/>
<path id="e" d="M14.1426 10.7127C14.1424 10.6672 14.2053 10.6663 14.2046 10.7127V10.8017H14.1426L14.1426 10.7127Z" fill="#242329"/>
<path id="e_2" d="M14.9409 10.7127C14.9407 10.6672 15.0037 10.6663 15.0029 10.7127V10.8017H14.9409L14.9409 10.7127Z" fill="#242329"/>
</g>
<g id="b_2">
<path id="Vector_35" d="M14.2642 15.056C14.2743 14.642 14.5681 14.5439 14.5702 14.5425C14.5723 14.5411 14.8876 14.6481 14.8865 15.0599L14.2642 15.056Z" fill="#FFFF00"/>
<path id="Vector_36" d="M14.0106 14.5508L13.9595 15.0267L14.27 15.0273C14.273 14.6336 14.5681 14.5682 14.5752 14.5696C14.5819 14.5692 14.8744 14.6567 14.8822 15.0273H15.1935L15.1373 14.5479L14.0106 14.5507L14.0106 14.5508Z" fill="#FFFF00" stroke="#242329" stroke-width="0.0597606"/>
<path id="Vector_37" d="M13.9388 15.0283H15.2098C15.2366 15.0283 15.2584 15.0548 15.2584 15.0871C15.2584 15.1194 15.2366 15.1457 15.2098 15.1457H13.9388C13.912 15.1457 13.8901 15.1194 13.8901 15.0871C13.8901 15.0548 13.912 15.0283 13.9388 15.0283Z" fill="#FFFF00" stroke="#242329" stroke-width="0.0597606"/>
<path id="Vector_38" d="M14.4006 15.0261C14.402 14.7777 14.5703 14.7074 14.5712 14.7075C14.5712 14.7075 14.7468 14.78 14.7482 15.0261H14.4006Z" fill="#FFFF00" stroke="#242329" stroke-width="0.0597606"/>
<path id="Vector_39" d="M13.9659 14.3525H15.1843C15.2099 14.3525 15.231 14.3764 15.231 14.4054C15.231 14.4344 15.2099 14.4582 15.1843 14.4582H13.9659C13.9402 14.4582 13.9192 14.4346 13.9192 14.4054C13.9192 14.3764 13.9402 14.3525 13.9659 14.3525Z" fill="#FFFF00" stroke="#242329" stroke-width="0.0597606"/>
<path id="Vector_40" d="M13.9912 14.459H15.1565C15.1811 14.459 15.2012 14.4827 15.2012 14.5118C15.2012 14.5409 15.1811 14.5646 15.1565 14.5646H13.9912C13.9666 14.5646 13.9465 14.5409 13.9465 14.5118C13.9465 14.4827 13.9666 14.459 13.9912 14.459Z" fill="#FFFF00" stroke="#242329" stroke-width="0.0597606"/>
<path id="Vector_41" d="M14.3678 13.6649L14.4598 13.665V13.7304H14.5269V13.6636L14.6212 13.6639V13.7304H14.6885V13.6636H14.7828L14.7827 13.8145C14.7827 13.8382 14.7636 13.8535 14.7415 13.8535H14.4107C14.3885 13.8535 14.368 13.8357 14.3679 13.814L14.3677 13.6649L14.3678 13.6649Z" fill="#FFFF00" stroke="#242329" stroke-width="0.0597606"/>
<path id="Vector_42" d="M14.7143 13.8665L14.7351 14.3503L14.4124 14.3492L14.4337 13.8652L14.7143 13.8665Z" fill="#FFFF00" stroke="#242329" stroke-width="0.0597606"/>
<path id="c_3" d="M14.3206 14.0908L14.3304 14.3516L14.021 14.3518L14.0297 14.0908L14.3206 14.0908Z" fill="#FFFF00" stroke="#242329" stroke-width="0.0597606"/>
<path id="c_4" d="M15.1162 14.0908L15.1261 14.3516L14.8167 14.3518L14.8254 14.0908L15.1162 14.0908Z" fill="#FFFF00" stroke="#242329" stroke-width="0.0597606"/>
<path id="d_3" d="M13.9725 13.9022L14.0625 13.9024V13.9678H14.1283V13.9009L14.2205 13.9012V13.9679H14.2864V13.9009L14.3787 13.9011L14.3786 14.0519C14.3786 14.0755 14.3599 14.0908 14.3383 14.0908H14.0146C13.9929 14.0908 13.9727 14.0732 13.9726 14.0514L13.9724 13.9023L13.9725 13.9022Z" fill="#FFFF00" stroke="#242329" stroke-width="0.0597606"/>
<path id="d_4" d="M14.7682 13.9022L14.8581 13.9024V13.9678H14.9239V13.9009L15.0161 13.9012V13.9679H15.0821V13.9009L15.1744 13.9011L15.1742 14.0519C15.1742 14.0755 15.1556 14.0908 15.134 14.0908H14.8102C14.7885 14.0908 14.7684 14.0732 14.7683 14.0514L14.7681 13.9023L14.7682 13.9022Z" fill="#FFFF00" stroke="#242329" stroke-width="0.0597606"/>
<path id="Vector_43" d="M14.5425 14.0198C14.5405 13.9728 14.6083 13.9723 14.6075 14.0198V14.1351H14.5425L14.5425 14.0198Z" fill="#242329"/>
<path id="e_3" d="M14.1426 14.1868C14.1424 14.1413 14.2053 14.1404 14.2046 14.1868V14.2758H14.1426L14.1426 14.1868Z" fill="#242329"/>
<path id="e_4" d="M14.9409 14.1868C14.9407 14.1413 15.0037 14.1404 15.0029 14.1868V14.2758H14.9409L14.9409 14.1868Z" fill="#242329"/>
</g>
<g id="b_3">
<path id="Vector_44" d="M15.6188 18.6724C15.3321 18.3735 15.4696 18.0959 15.47 18.0934C15.4706 18.0909 15.7686 17.9426 16.0601 18.2335L15.6188 18.6724Z" fill="#FFFF00"/>
<path id="Vector_45" d="M15.0816 18.4961L15.3832 18.8677L15.6025 18.6478C15.3252 18.3682 15.4867 18.1127 15.4927 18.1087C15.4972 18.1037 15.7653 17.9577 16.0338 18.2134L16.2532 17.9925L15.8733 17.6945L15.0815 18.496L15.0816 18.4961Z" fill="#FFFF00" stroke="#242329" stroke-width="0.0597606"/>
<path id="Vector_46" d="M15.3698 18.8839L16.2653 17.9821C16.2841 17.963 16.3183 17.9662 16.3413 17.9889C16.3642 18.0117 16.3675 18.0458 16.3486 18.0648L15.4531 18.9666C15.4342 18.9856 15.4001 18.9826 15.3772 18.9599C15.3542 18.9371 15.3509 18.9029 15.3698 18.8839Z" fill="#FFFF00" stroke="#242329" stroke-width="0.0597606"/>
<path id="Vector_47" d="M15.6936 18.5541C15.5183 18.3781 15.587 18.2091 15.5877 18.2086C15.5877 18.2085 15.7629 18.135 15.9385 18.3074L15.6936 18.5541Z" fill="#FFFF00" stroke="#242329" stroke-width="0.0597606"/>
<path id="Vector_48" d="M14.9094 18.3883L15.7678 17.5237C15.7859 17.5055 15.8177 17.5074 15.8383 17.5278C15.8589 17.5483 15.8609 17.58 15.8429 17.5982L14.9844 18.4627C14.9663 18.4809 14.9347 18.4792 14.914 18.4586C14.8934 18.4382 14.8913 18.4065 14.9094 18.3883Z" fill="#FFFF00" stroke="#242329" stroke-width="0.0597606"/>
<path id="Vector_49" d="M15.0029 18.4454L15.824 17.6184C15.8413 17.601 15.8723 17.6035 15.8929 17.624C15.9136 17.6445 15.9163 17.6755 15.899 17.6929L15.0779 18.5198C15.0606 18.5372 15.0295 18.5348 15.0089 18.5142C14.9883 18.4938 14.9856 18.4628 15.0029 18.4454Z" fill="#FFFF00" stroke="#242329" stroke-width="0.0597606"/>
<path id="Vector_50" d="M14.7046 17.6185L14.7696 17.5533L14.8159 17.5994L14.8632 17.5517L14.8158 17.5047L14.8824 17.438L14.9297 17.4849L14.9771 17.4371L14.9297 17.39L14.9962 17.3231L15.1031 17.4295C15.1199 17.4462 15.1174 17.4705 15.1018 17.4862L14.8687 17.721C14.853 17.7368 14.826 17.7388 14.8105 17.7235L14.7046 17.6186L14.7046 17.6185Z" fill="#FFFF00" stroke="#242329" stroke-width="0.0597606"/>
<path id="Vector_51" d="M15.0918 17.5147L15.4498 17.8408L15.2216 18.069L14.8932 17.7129L15.0918 17.5147Z" fill="#FFFF00" stroke="#242329" stroke-width="0.0597606"/>
<path id="c_5" d="M14.9735 17.9525L15.1655 18.1292L14.9476 18.3489L14.7686 18.1589L14.9735 17.9525Z" fill="#FFFF00" stroke="#242329" stroke-width="0.0597606"/>
<path id="c_6" d="M15.5343 17.3875L15.7263 17.5643L15.5084 17.784L15.3294 17.5939L15.5343 17.3875Z" fill="#FFFF00" stroke="#242329" stroke-width="0.0597606"/>
<path id="d_5" d="M14.5943 18.0658L14.6578 18.0021L14.7042 18.0482L14.7506 18.0015L14.7031 17.9543L14.7683 17.8891L14.8156 17.9361L14.8621 17.8893L14.8146 17.8421L14.8797 17.7768L14.9866 17.8832C15.0033 17.8998 15.0011 17.9238 14.9859 17.9391L14.7578 18.1689C14.7425 18.1843 14.7157 18.1861 14.7002 18.1708L14.5942 18.0659L14.5943 18.0658Z" fill="#FFFF00" stroke="#242329" stroke-width="0.0597606"/>
<path id="d_6" d="M15.1548 17.5013L15.2184 17.4377L15.2648 17.4837L15.3111 17.437L15.2636 17.3899L15.3288 17.3247L15.3761 17.3716L15.4226 17.3248L15.3751 17.2777L15.4402 17.2123L15.5472 17.3187C15.5639 17.3353 15.5616 17.3594 15.5464 17.3747L15.3183 17.6044C15.303 17.6198 15.2763 17.6217 15.2608 17.6064L15.1548 17.5015L15.1548 17.5013Z" fill="#FFFF00" stroke="#242329" stroke-width="0.0597606"/>
<path id="Vector_52" d="M15.0792 17.7447C15.0444 17.713 15.0917 17.6645 15.1249 17.6986L15.2067 17.7798L15.1609 17.8259L15.0792 17.7447Z" fill="#242329"/>
<path id="e_5" d="M14.9165 18.1458C14.8841 18.114 14.9278 18.0686 14.9602 18.1019L15.0234 18.1646L14.9797 18.2086L14.9165 18.1458Z" fill="#242329"/>
<path id="e_6" d="M15.4788 17.5794C15.4464 17.5476 15.4901 17.5022 15.5224 17.5355L15.5856 17.5982L15.542 17.6422L15.4788 17.5794Z" fill="#242329"/>
</g>
</g>
<g id="b_4">
<path id="Vector_53" d="M17.6929 11.5819C17.703 11.1679 17.9968 11.0698 17.9989 11.0684C18.001 11.067 18.3163 11.1739 18.3152 11.5858L17.6929 11.5819Z" fill="#FFFF00"/>
<path id="Vector_54" d="M17.4393 11.0767L17.3882 11.5525L17.6987 11.5532C17.7017 11.1595 17.9968 11.094 18.0039 11.0955C18.0106 11.0951 18.3031 11.1825 18.3109 11.5532H18.6222L18.566 11.0737L17.4393 11.0766L17.4393 11.0767Z" fill="#FFFF00" stroke="#242329" stroke-width="0.0597606"/>
<path id="Vector_55" d="M17.367 11.5542H18.638C18.6648 11.5542 18.6867 11.5807 18.6867 11.613C18.6867 11.6453 18.6648 11.6716 18.638 11.6716H17.367C17.3403 11.6716 17.3184 11.6453 17.3184 11.613C17.3184 11.5807 17.3403 11.5542 17.367 11.5542Z" fill="#FFFF00" stroke="#242329" stroke-width="0.0597606"/>
<path id="Vector_56" d="M17.8293 11.552C17.8307 11.3036 17.999 11.2333 17.9999 11.2334C17.9999 11.2334 18.1755 11.3059 18.1769 11.552H17.8293Z" fill="#FFFF00" stroke="#242329" stroke-width="0.0597606"/>
<path id="Vector_57" d="M17.3944 10.8784H18.6127C18.6384 10.8784 18.6594 10.9023 18.6594 10.9313C18.6594 10.9603 18.6384 10.9841 18.6127 10.9841H17.3944C17.3687 10.9841 17.3477 10.9604 17.3477 10.9313C17.3477 10.9023 17.3687 10.8784 17.3944 10.8784Z" fill="#FFFF00" stroke="#242329" stroke-width="0.0597606"/>
<path id="Vector_58" d="M17.4199 10.9849H18.5852C18.6098 10.9849 18.6299 11.0086 18.6299 11.0376C18.6299 11.0668 18.6098 11.0905 18.5852 11.0905H17.4199C17.3954 11.0905 17.3752 11.0668 17.3752 11.0376C17.3752 11.0086 17.3954 10.9849 17.4199 10.9849Z" fill="#FFFF00" stroke="#242329" stroke-width="0.0597606"/>
<path id="Vector_59" d="M17.7963 10.1908L17.8883 10.1909V10.2563H17.9554V10.1895L18.0496 10.1898V10.2563H18.117V10.1895H18.2113L18.2112 10.3404C18.2112 10.364 18.1921 10.3794 18.17 10.3794H17.8392C17.8169 10.3794 17.7964 10.3616 17.7964 10.3399L17.7961 10.1908L17.7963 10.1908Z" fill="#FFFF00" stroke="#242329" stroke-width="0.0597606"/>
<path id="Vector_60" d="M18.1428 10.3924L18.1635 10.8762L17.8408 10.875L17.8622 10.3911L18.1428 10.3924Z" fill="#FFFF00" stroke="#242329" stroke-width="0.0597606"/>
<path id="c_7" d="M17.7493 10.6167L17.7591 10.8775L17.4497 10.8777L17.4584 10.6167L17.7493 10.6167Z" fill="#FFFF00" stroke="#242329" stroke-width="0.0597606"/>
<path id="c_8" d="M18.5447 10.6167L18.5545 10.8775L18.2451 10.8777L18.2538 10.6167L18.5447 10.6167Z" fill="#FFFF00" stroke="#242329" stroke-width="0.0597606"/>
<path id="d_7" d="M17.401 10.4276L17.4909 10.4278V10.4932H17.5568V10.4263L17.649 10.4266V10.4932H17.7149V10.4263L17.8072 10.4265L17.807 10.5773C17.807 10.6009 17.7884 10.6162 17.7668 10.6162H17.443C17.4213 10.6162 17.4012 10.5986 17.4011 10.5768L17.4009 10.4276L17.401 10.4276Z" fill="#FFFF00" stroke="#242329" stroke-width="0.0597606"/>
<path id="d_8" d="M18.1966 10.4276L18.2866 10.4278V10.4932H18.3524V10.4263L18.4446 10.4266V10.4932H18.5106V10.4263L18.6028 10.4265L18.6027 10.5773C18.6027 10.6009 18.584 10.6162 18.5625 10.6162H18.2387C18.217 10.6162 18.1968 10.5986 18.1968 10.5768L18.1965 10.4276L18.1966 10.4276Z" fill="#FFFF00" stroke="#242329" stroke-width="0.0597606"/>
<path id="Vector_61" d="M17.9712 10.5457C17.9692 10.4987 18.037 10.4982 18.0362 10.5457V10.661H17.9712L17.9712 10.5457Z" fill="#242329"/>
<path id="e_7" d="M17.5713 10.7127C17.5711 10.6672 17.6341 10.6663 17.6333 10.7127V10.8017H17.5713L17.5713 10.7127Z" fill="#242329"/>
<path id="e_8" d="M18.3694 10.7127C18.3692 10.6672 18.4322 10.6663 18.4314 10.7127V10.8017H18.3694L18.3694 10.7127Z" fill="#242329"/>
</g>
<g id="a_2">
<g id="b_5">
<path id="Vector_62" d="M21.7202 11.5819C21.7101 11.1679 21.4163 11.0698 21.4142 11.0684C21.4121 11.067 21.0968 11.1739 21.0979 11.5858L21.7202 11.5819Z" fill="#FFFF00"/>
<path id="Vector_63" d="M21.9738 11.0767L22.0249 11.5525L21.7144 11.5532C21.7114 11.1595 21.4163 11.094 21.4092 11.0955C21.4025 11.0951 21.11 11.1825 21.1022 11.5532H20.7909L20.8471 11.0737L21.9737 11.0766L21.9738 11.0767Z" fill="#FFFF00" stroke="#242329" stroke-width="0.0597606"/>
<path id="Vector_64" d="M22.0458 11.5542H20.7749C20.7481 11.5542 20.7262 11.5807 20.7262 11.613C20.7262 11.6453 20.7481 11.6716 20.7749 11.6716H22.0458C22.0726 11.6716 22.0945 11.6453 22.0945 11.613C22.0945 11.5807 22.0726 11.5542 22.0458 11.5542Z" fill="#FFFF00" stroke="#242329" stroke-width="0.0597606"/>
<path id="Vector_65" d="M21.5835 11.552C21.5821 11.3036 21.4138 11.2333 21.413 11.2334C21.4129 11.2334 21.2373 11.3059 21.2359 11.552H21.5835Z" fill="#FFFF00" stroke="#242329" stroke-width="0.0597606"/>
<path id="Vector_66" d="M22.0187 10.8784H20.8004C20.7747 10.8784 20.7537 10.9023 20.7537 10.9313C20.7537 10.9603 20.7747 10.9841 20.8004 10.9841H22.0187C22.0444 10.9841 22.0654 10.9604 22.0654 10.9313C22.0654 10.9023 22.0444 10.8784 22.0187 10.8784Z" fill="#FFFF00" stroke="#242329" stroke-width="0.0597606"/>
<path id="Vector_67" d="M21.9932 10.9849H20.8278C20.8033 10.9849 20.7832 11.0086 20.7832 11.0376C20.7832 11.0668 20.8033 11.0905 20.8278 11.0905H21.9932C22.0177 11.0905 22.0378 11.0668 22.0378 11.0376C22.0378 11.0086 22.0177 10.9849 21.9932 10.9849Z" fill="#FFFF00" stroke="#242329" stroke-width="0.0597606"/>
<path id="Vector_68" d="M21.6166 10.1908L21.5246 10.1909V10.2563H21.4574V10.1895L21.3632 10.1898V10.2563H21.2959V10.1895H21.2015L21.2017 10.3404C21.2017 10.364 21.2207 10.3794 21.2428 10.3794H21.5737C21.5959 10.3794 21.6164 10.3616 21.6165 10.3399L21.6167 10.1908L21.6166 10.1908Z" fill="#FFFF00" stroke="#242329" stroke-width="0.0597606"/>
<path id="Vector_69" d="M21.2701 10.3924L21.2493 10.8762L21.572 10.875L21.5507 10.3911L21.2701 10.3924Z" fill="#FFFF00" stroke="#242329" stroke-width="0.0597606"/>
<path id="c_9" d="M21.6638 10.6167L21.654 10.8775L21.9634 10.8777L21.9546 10.6167L21.6638 10.6167Z" fill="#FFFF00" stroke="#242329" stroke-width="0.0597606"/>
<path id="c_10" d="M20.8684 10.6167L20.8585 10.8775L21.168 10.8777L21.1592 10.6167L20.8684 10.6167Z" fill="#FFFF00" stroke="#242329" stroke-width="0.0597606"/>
<path id="d_9" d="M22.0119 10.4276L21.9219 10.4278V10.4932H21.8561V10.4263L21.7639 10.4266V10.4932H21.6979V10.4263L21.6057 10.4265L21.6058 10.5773C21.6058 10.6009 21.6245 10.6162 21.646 10.6162H21.9698C21.9915 10.6162 22.0117 10.5986 22.0117 10.5768L22.012 10.4276L22.0119 10.4276Z" fill="#FFFF00" stroke="#242329" stroke-width="0.0597606"/>
<path id="d_10" d="M21.2162 10.4276L21.1262 10.4278V10.4932H21.0604V10.4263L20.9682 10.4266V10.4932H20.9023V10.4263L20.81 10.4265L20.8102 10.5773C20.8102 10.6009 20.8288 10.6162 20.8504 10.6162H21.1741C21.1958 10.6162 21.216 10.5986 21.2161 10.5768L21.2163 10.4276L21.2162 10.4276Z" fill="#FFFF00" stroke="#242329" stroke-width="0.0597606"/>
<path id="Vector_70" d="M21.4419 10.5457C21.4438 10.4987 21.3761 10.4982 21.3769 10.5457V10.661H21.4418L21.4419 10.5457Z" fill="#242329"/>
<path id="e_9" d="M21.8416 10.7127C21.8418 10.6672 21.7788 10.6663 21.7796 10.7127V10.8017H21.8415L21.8416 10.7127Z" fill="#242329"/>
<path id="e_10" d="M21.0435 10.7127C21.0437 10.6672 20.9807 10.6663 20.9815 10.7127V10.8017H21.0434L21.0435 10.7127Z" fill="#242329"/>
</g>
<g id="b_6">
<path id="Vector_71" d="M21.7202 15.056C21.7101 14.642 21.4163 14.5439 21.4142 14.5425C21.4121 14.5411 21.0968 14.6481 21.0979 15.0599L21.7202 15.056Z" fill="#FFFF00"/>
<path id="Vector_72" d="M21.9738 14.5508L22.0249 15.0267L21.7144 15.0273C21.7114 14.6336 21.4163 14.5682 21.4092 14.5696C21.4025 14.5692 21.11 14.6567 21.1022 15.0273H20.7909L20.8471 14.5479L21.9737 14.5507L21.9738 14.5508Z" fill="#FFFF00" stroke="#242329" stroke-width="0.0597606"/>
<path id="Vector_73" d="M22.0458 15.0283H20.7749C20.7481 15.0283 20.7262 15.0548 20.7262 15.0871C20.7262 15.1194 20.7481 15.1457 20.7749 15.1457H22.0458C22.0726 15.1457 22.0945 15.1194 22.0945 15.0871C22.0945 15.0548 22.0726 15.0283 22.0458 15.0283Z" fill="#FFFF00" stroke="#242329" stroke-width="0.0597606"/>
<path id="Vector_74" d="M21.5835 15.0261C21.5821 14.7777 21.4138 14.7074 21.413 14.7075C21.4129 14.7075 21.2373 14.78 21.2359 15.0261H21.5835Z" fill="#FFFF00" stroke="#242329" stroke-width="0.0597606"/>
<path id="Vector_75" d="M22.0187 14.3525H20.8004C20.7747 14.3525 20.7537 14.3764 20.7537 14.4054C20.7537 14.4344 20.7747 14.4582 20.8004 14.4582H22.0187C22.0444 14.4582 22.0654 14.4346 22.0654 14.4054C22.0654 14.3764 22.0444 14.3525 22.0187 14.3525Z" fill="#FFFF00" stroke="#242329" stroke-width="0.0597606"/>
<path id="Vector_76" d="M21.9932 14.459H20.8278C20.8033 14.459 20.7832 14.4827 20.7832 14.5118C20.7832 14.5409 20.8033 14.5646 20.8278 14.5646H21.9932C22.0177 14.5646 22.0378 14.5409 22.0378 14.5118C22.0378 14.4827 22.0177 14.459 21.9932 14.459Z" fill="#FFFF00" stroke="#242329" stroke-width="0.0597606"/>
<path id="Vector_77" d="M21.6166 13.6649L21.5246 13.665V13.7304H21.4574V13.6636L21.3632 13.6639V13.7304H21.2959V13.6636H21.2015L21.2017 13.8145C21.2017 13.8382 21.2207 13.8535 21.2428 13.8535H21.5737C21.5959 13.8535 21.6164 13.8357 21.6165 13.814L21.6167 13.6649L21.6166 13.6649Z" fill="#FFFF00" stroke="#242329" stroke-width="0.0597606"/>
<path id="Vector_78" d="M21.2701 13.8665L21.2493 14.3503L21.572 14.3492L21.5507 13.8652L21.2701 13.8665Z" fill="#FFFF00" stroke="#242329" stroke-width="0.0597606"/>
<path id="c_11" d="M21.6638 14.0908L21.654 14.3516L21.9634 14.3518L21.9546 14.0908L21.6638 14.0908Z" fill="#FFFF00" stroke="#242329" stroke-width="0.0597606"/>
<path id="c_12" d="M20.8684 14.0908L20.8585 14.3516L21.168 14.3518L21.1592 14.0908L20.8684 14.0908Z" fill="#FFFF00" stroke="#242329" stroke-width="0.0597606"/>
<path id="d_11" d="M22.0119 13.9022L21.9219 13.9024V13.9678H21.8561V13.9009L21.7639 13.9012V13.9679H21.6979V13.9009L21.6057 13.9011L21.6058 14.0519C21.6058 14.0755 21.6245 14.0908 21.646 14.0908H21.9698C21.9915 14.0908 22.0117 14.0732 22.0117 14.0514L22.012 13.9023L22.0119 13.9022Z" fill="#FFFF00" stroke="#242329" stroke-width="0.0597606"/>
<path id="d_12" d="M21.2162 13.9022L21.1262 13.9024V13.9678H21.0604V13.9009L20.9682 13.9012V13.9679H20.9023V13.9009L20.81 13.9011L20.8102 14.0519C20.8102 14.0755 20.8288 14.0908 20.8504 14.0908H21.1741C21.1958 14.0908 21.216 14.0732 21.2161 14.0514L21.2163 13.9023L21.2162 13.9022Z" fill="#FFFF00" stroke="#242329" stroke-width="0.0597606"/>
<path id="Vector_79" d="M21.4419 14.0198C21.4438 13.9728 21.3761 13.9723 21.3769 14.0198V14.1351H21.4418L21.4419 14.0198Z" fill="#242329"/>
<path id="e_11" d="M21.8416 14.1868C21.8418 14.1413 21.7788 14.1404 21.7796 14.1868V14.2758H21.8415L21.8416 14.1868Z" fill="#242329"/>
<path id="e_12" d="M21.0435 14.1868C21.0437 14.1413 20.9807 14.1404 20.9815 14.1868V14.2758H21.0434L21.0435 14.1868Z" fill="#242329"/>
</g>
<g id="b_7">
<path id="Vector_80" d="M20.3656 18.6724C20.6523 18.3735 20.5148 18.0959 20.5143 18.0934C20.5138 18.0909 20.2158 17.9426 19.9243 18.2335L20.3656 18.6724Z" fill="#FFFF00"/>
<path id="Vector_81" d="M20.9028 18.4961L20.6012 18.8677L20.3819 18.6478C20.6591 18.3682 20.4977 18.1127 20.4916 18.1087C20.4872 18.1037 20.2191 17.9577 19.9505 18.2134L19.7312 17.9925L20.111 17.6945L20.9029 18.496L20.9028 18.4961Z" fill="#FFFF00" stroke="#242329" stroke-width="0.0597606"/>
<path id="Vector_82" d="M20.6146 18.8839L19.7191 17.9821C19.7002 17.963 19.666 17.9662 19.6431 17.9889C19.6202 18.0117 19.6169 18.0458 19.6358 18.0648L20.5313 18.9666C20.5502 18.9856 20.5843 18.9826 20.6072 18.9599C20.6302 18.9371 20.6335 18.9029 20.6146 18.8839Z" fill="#FFFF00" stroke="#242329" stroke-width="0.0597606"/>
<path id="Vector_83" d="M20.2908 18.5541C20.4661 18.3781 20.3974 18.2091 20.3967 18.2086C20.3966 18.2085 20.2215 18.135 20.0458 18.3074L20.2908 18.5541Z" fill="#FFFF00" stroke="#242329" stroke-width="0.0597606"/>
<path id="Vector_84" d="M21.075 18.3883L20.2165 17.5237C20.1984 17.5055 20.1667 17.5074 20.1461 17.5278C20.1255 17.5483 20.1234 17.58 20.1415 17.5982L21 18.4627C21.0181 18.4809 21.0497 18.4792 21.0704 18.4586C21.091 18.4382 21.0931 18.4065 21.075 18.3883Z" fill="#FFFF00" stroke="#242329" stroke-width="0.0597606"/>
<path id="Vector_85" d="M20.9815 18.4454L20.1604 17.6184C20.1431 17.601 20.1121 17.6035 20.0915 17.624C20.0708 17.6445 20.0681 17.6755 20.0854 17.6929L20.9065 18.5198C20.9238 18.5372 20.9548 18.5348 20.9755 18.5142C20.9961 18.4938 20.9988 18.4628 20.9815 18.4454Z" fill="#FFFF00" stroke="#242329" stroke-width="0.0597606"/>
<path id="Vector_86" d="M21.28 17.6185L21.2151 17.5533L21.1687 17.5994L21.1214 17.5517L21.1688 17.5047L21.1022 17.438L21.055 17.4849L21.0075 17.4371L21.0549 17.39L20.9885 17.3231L20.8815 17.4295C20.8647 17.4462 20.8672 17.4705 20.8828 17.4862L21.1159 17.721C21.1316 17.7368 21.1586 17.7388 21.1741 17.7235L21.28 17.6186L21.28 17.6185Z" fill="#FFFF00" stroke="#242329" stroke-width="0.0597606"/>
<path id="Vector_87" d="M20.8926 17.5147L20.5346 17.8408L20.7628 18.069L21.0911 17.7129L20.8926 17.5147Z" fill="#FFFF00" stroke="#242329" stroke-width="0.0597606"/>
<path id="c_13" d="M21.0108 17.952L20.8188 18.1288L21.0367 18.3484L21.2158 18.1584L21.0108 17.952Z" fill="#FFFF00" stroke="#242329" stroke-width="0.0597606"/>
<path id="c_14" d="M20.4501 17.3875L20.258 17.5643L20.476 17.784L20.655 17.5939L20.4501 17.3875Z" fill="#FFFF00" stroke="#242329" stroke-width="0.0597606"/>
<path id="d_13" d="M21.3901 18.0658L21.3266 18.0021L21.2802 18.0482L21.2338 18.0015L21.2813 17.9543L21.2161 17.8891L21.1688 17.9361L21.1223 17.8893L21.1698 17.8421L21.1047 17.7768L20.9977 17.8832C20.981 17.8998 20.9833 17.9238 20.9985 17.9391L21.2266 18.1689C21.2419 18.1843 21.2686 18.1861 21.2841 18.1708L21.3901 18.0659L21.3901 18.0658Z" fill="#FFFF00" stroke="#242329" stroke-width="0.0597606"/>
<path id="d_14" d="M20.8296 17.5013L20.766 17.4377L20.7196 17.4837L20.6732 17.437L20.7207 17.3899L20.6556 17.3247L20.6082 17.3716L20.5618 17.3248L20.6093 17.2777L20.5442 17.2123L20.4372 17.3187C20.4205 17.3353 20.4227 17.3594 20.4379 17.3747L20.6661 17.6044C20.6814 17.6198 20.7081 17.6217 20.7236 17.6064L20.8296 17.5015L20.8296 17.5013Z" fill="#FFFF00" stroke="#242329" stroke-width="0.0597606"/>
<path id="Vector_88" d="M20.905 17.7447C20.9397 17.713 20.8924 17.6645 20.8592 17.6986L20.7774 17.7798L20.8232 17.8259L20.905 17.7447Z" fill="#242329"/>
<path id="e_13" d="M21.0681 18.1458C21.1005 18.114 21.0568 18.0686 21.0244 18.1019L20.9613 18.1646L21.0049 18.2086L21.0681 18.1458Z" fill="#242329"/>
<path id="e_14" d="M20.5056 17.5799C20.538 17.5481 20.4943 17.5027 20.4619 17.5359L20.3988 17.5987L20.4424 17.6426L20.5056 17.5799Z" fill="#242329"/>
</g>
</g>
<g id="f">
<path id="Vector_89" d="M17.4478 15.1805V15.1809C17.4478 15.3468 17.5115 15.498 17.6137 15.6076C17.7161 15.7176 17.8571 15.7859 18.0113 15.7859C18.1664 15.7859 18.3071 15.7181 18.409 15.6085C18.5109 15.4991 18.5742 15.3481 18.5742 15.1816V14.374L17.4498 14.373L17.4478 15.1805Z" fill="#003399"/>
<path id="Vector_90" d="M17.7054 14.7917C17.767 14.7917 17.8169 14.7419 17.8169 14.6803C17.8169 14.6187 17.767 14.5688 17.7054 14.5688C17.6439 14.5688 17.594 14.6187 17.594 14.6803C17.594 14.7419 17.6439 14.7917 17.7054 14.7917Z" fill="#F3F4F4"/>
<path id="Vector_91" d="M18.3292 14.7922C18.3908 14.7922 18.4407 14.7423 18.4407 14.6808C18.4407 14.6192 18.3908 14.5693 18.3292 14.5693C18.2677 14.5693 18.2178 14.6192 18.2178 14.6808C18.2178 14.7423 18.2677 14.7922 18.3292 14.7922Z" fill="#F3F4F4"/>
<path id="Vector_92" d="M18.017 15.0916C18.0785 15.0916 18.1284 15.0417 18.1284 14.9801C18.1284 14.9186 18.0785 14.8687 18.017 14.8687C17.9554 14.8687 17.9055 14.9186 17.9055 14.9801C17.9055 15.0417 17.9554 15.0916 18.017 15.0916Z" fill="#F3F4F4"/>
<path id="Vector_93" d="M17.7054 15.405C17.767 15.405 17.8169 15.3551 17.8169 15.2936C17.8169 15.232 17.767 15.1821 17.7054 15.1821C17.6439 15.1821 17.594 15.232 17.594 15.2936C17.594 15.3551 17.6439 15.405 17.7054 15.405Z" fill="#F3F4F4"/>
<path id="Vector_94" d="M18.3287 15.4045C18.3903 15.4045 18.4402 15.3546 18.4402 15.2931C18.4402 15.2315 18.3903 15.1816 18.3287 15.1816C18.2672 15.1816 18.2173 15.2315 18.2173 15.2931C18.2173 15.3546 18.2672 15.4045 18.3287 15.4045Z" fill="#F3F4F4"/>
</g>
<g id="f_2">
<path id="Vector_95" d="M17.4478 13.2294V13.2297C17.4478 13.3956 17.5115 13.5468 17.6137 13.6564C17.7161 13.7665 17.8571 13.8348 18.0113 13.8348C18.1664 13.8348 18.3071 13.7669 18.409 13.6574C18.5109 13.548 18.5742 13.397 18.5742 13.2304V12.4228L17.4498 12.4219L17.4478 13.2294Z" fill="#003399"/>
<path id="Vector_96" d="M17.7054 12.8406C17.767 12.8406 17.8169 12.7907 17.8169 12.7291C17.8169 12.6676 17.767 12.6177 17.7054 12.6177C17.6439 12.6177 17.594 12.6676 17.594 12.7291C17.594 12.7907 17.6439 12.8406 17.7054 12.8406Z" fill="#F3F4F4"/>
<path id="Vector_97" d="M18.3292 12.8411C18.3908 12.8411 18.4407 12.7912 18.4407 12.7296C18.4407 12.6681 18.3908 12.6182 18.3292 12.6182C18.2677 12.6182 18.2178 12.6681 18.2178 12.7296C18.2178 12.7912 18.2677 12.8411 18.3292 12.8411Z" fill="#F3F4F4"/>
<path id="Vector_98" d="M18.017 13.1404C18.0785 13.1404 18.1284 13.0905 18.1284 13.0289C18.1284 12.9674 18.0785 12.9175 18.017 12.9175C17.9554 12.9175 17.9055 12.9674 17.9055 13.0289C17.9055 13.0905 17.9554 13.1404 18.017 13.1404Z" fill="#F3F4F4"/>
<path id="Vector_99" d="M17.7054 13.4539C17.767 13.4539 17.8169 13.404 17.8169 13.3424C17.8169 13.2809 17.767 13.231 17.7054 13.231C17.6439 13.231 17.594 13.2809 17.594 13.3424C17.594 13.404 17.6439 13.4539 17.7054 13.4539Z" fill="#F3F4F4"/>
<path id="Vector_100" d="M18.3287 13.4534C18.3903 13.4534 18.4402 13.4035 18.4402 13.3419C18.4402 13.2804 18.3903 13.2305 18.3287 13.2305C18.2672 13.2305 18.2173 13.2804 18.2173 13.3419C18.2173 13.4035 18.2672 13.4534 18.3287 13.4534Z" fill="#F3F4F4"/>
</g>
<g id="f_3">
<path id="Vector_101" d="M15.8877 15.1805V15.1809C15.8877 15.3468 15.9514 15.498 16.0536 15.6076C16.156 15.7176 16.297 15.7859 16.4513 15.7859C16.6063 15.7859 16.7471 15.7181 16.849 15.6085C16.9508 15.4991 17.0141 15.3481 17.0141 15.1816V14.374L15.8897 14.373L15.8877 15.1805Z" fill="#003399"/>
<path id="Vector_102" d="M16.1456 14.7917C16.2072 14.7917 16.2571 14.7419 16.2571 14.6803C16.2571 14.6187 16.2072 14.5688 16.1456 14.5688C16.0841 14.5688 16.0342 14.6187 16.0342 14.6803C16.0342 14.7419 16.0841 14.7917 16.1456 14.7917Z" fill="#F3F4F4"/>
<path id="Vector_103" d="M16.7694 14.7922C16.831 14.7922 16.8809 14.7423 16.8809 14.6808C16.8809 14.6192 16.831 14.5693 16.7694 14.5693C16.7079 14.5693 16.658 14.6192 16.658 14.6808C16.658 14.7423 16.7079 14.7922 16.7694 14.7922Z" fill="#F3F4F4"/>
<path id="Vector_104" d="M16.4569 15.0916C16.5185 15.0916 16.5684 15.0417 16.5684 14.9801C16.5684 14.9186 16.5185 14.8687 16.4569 14.8687C16.3954 14.8687 16.3455 14.9186 16.3455 14.9801C16.3455 15.0417 16.3954 15.0916 16.4569 15.0916Z" fill="#F3F4F4"/>
<path id="Vector_105" d="M16.1456 15.405C16.2072 15.405 16.2571 15.3551 16.2571 15.2936C16.2571 15.232 16.2072 15.1821 16.1456 15.1821C16.0841 15.1821 16.0342 15.232 16.0342 15.2936C16.0342 15.3551 16.0841 15.405 16.1456 15.405Z" fill="#F3F4F4"/>
<path id="Vector_106" d="M16.7687 15.4045C16.8302 15.4045 16.8801 15.3546 16.8801 15.2931C16.8801 15.2315 16.8302 15.1816 16.7687 15.1816C16.7071 15.1816 16.6572 15.2315 16.6572 15.2931C16.6572 15.3546 16.7071 15.4045 16.7687 15.4045Z" fill="#F3F4F4"/>
</g>
<g id="f_4">
<path id="Vector_107" d="M19.0037 15.1805V15.1809C19.0037 15.3468 19.0674 15.498 19.1696 15.6076C19.272 15.7176 19.413 15.7859 19.5672 15.7859C19.7223 15.7859 19.863 15.7181 19.965 15.6085C20.0668 15.4991 20.1301 15.3481 20.1301 15.1816V14.374L19.0057 14.373L19.0037 15.1805Z" fill="#003399"/>
<path id="Vector_108" d="M19.2616 14.7917C19.3231 14.7917 19.373 14.7419 19.373 14.6803C19.373 14.6187 19.3231 14.5688 19.2616 14.5688C19.2 14.5688 19.1501 14.6187 19.1501 14.6803C19.1501 14.7419 19.2 14.7917 19.2616 14.7917Z" fill="#F3F4F4"/>
<path id="Vector_109" d="M19.8854 14.7922C19.9469 14.7922 19.9968 14.7423 19.9968 14.6808C19.9968 14.6192 19.9469 14.5693 19.8854 14.5693C19.8238 14.5693 19.7739 14.6192 19.7739 14.6808C19.7739 14.7423 19.8238 14.7922 19.8854 14.7922Z" fill="#F3F4F4"/>
<path id="Vector_110" d="M19.5729 15.0916C19.6344 15.0916 19.6843 15.0417 19.6843 14.9801C19.6843 14.9186 19.6344 14.8687 19.5729 14.8687C19.5113 14.8687 19.4614 14.9186 19.4614 14.9801C19.4614 15.0417 19.5113 15.0916 19.5729 15.0916Z" fill="#F3F4F4"/>
<path id="Vector_111" d="M19.2616 15.405C19.3231 15.405 19.373 15.3551 19.373 15.2936C19.373 15.232 19.3231 15.1821 19.2616 15.1821C19.2 15.1821 19.1501 15.232 19.1501 15.2936C19.1501 15.3551 19.2 15.405 19.2616 15.405Z" fill="#F3F4F4"/>
<path id="Vector_112" d="M19.8844 15.4045C19.946 15.4045 19.9958 15.3546 19.9958 15.2931C19.9958 15.2315 19.946 15.1816 19.8844 15.1816C19.8228 15.1816 19.7729 15.2315 19.7729 15.2931C19.7729 15.3546 19.8228 15.4045 19.8844 15.4045Z" fill="#F3F4F4"/>
</g>
<g id="f_5">
<path id="Vector_113" d="M17.4478 17.1141V17.1145C17.4478 17.2804 17.5115 17.4316 17.6137 17.5412C17.7161 17.6512 17.8571 17.7195 18.0113 17.7195C18.1664 17.7195 18.3071 17.6517 18.409 17.5421C18.5109 17.4327 18.5742 17.2817 18.5742 17.1152V16.3076L17.4498 16.3066L17.4478 17.1141Z" fill="#003399"/>
<path id="Vector_114" d="M17.7054 16.7253C17.767 16.7253 17.8169 16.6754 17.8169 16.6139C17.8169 16.5523 17.767 16.5024 17.7054 16.5024C17.6439 16.5024 17.594 16.5523 17.594 16.6139C17.594 16.6754 17.6439 16.7253 17.7054 16.7253Z" fill="#F3F4F4"/>
<path id="Vector_115" d="M18.3292 16.7258C18.3908 16.7258 18.4407 16.6759 18.4407 16.6144C18.4407 16.5528 18.3908 16.5029 18.3292 16.5029C18.2677 16.5029 18.2178 16.5528 18.2178 16.6144C18.2178 16.6759 18.2677 16.7258 18.3292 16.7258Z" fill="#F3F4F4"/>
<path id="Vector_116" d="M18.017 17.0251C18.0785 17.0251 18.1284 16.9752 18.1284 16.9137C18.1284 16.8521 18.0785 16.8022 18.017 16.8022C17.9554 16.8022 17.9055 16.8521 17.9055 16.9137C17.9055 16.9752 17.9554 17.0251 18.017 17.0251Z" fill="#F3F4F4"/>
<path id="Vector_117" d="M17.7054 17.3386C17.767 17.3386 17.8169 17.2887 17.8169 17.2272C17.8169 17.1656 17.767 17.1157 17.7054 17.1157C17.6439 17.1157 17.594 17.1656 17.594 17.2272C17.594 17.2887 17.6439 17.3386 17.7054 17.3386Z" fill="#F3F4F4"/>
<path id="Vector_118" d="M18.3287 17.3381C18.3903 17.3381 18.4402 17.2882 18.4402 17.2267C18.4402 17.1651 18.3903 17.1152 18.3287 17.1152C18.2672 17.1152 18.2173 17.1651 18.2173 17.2267C18.2173 17.2882 18.2672 17.3381 18.3287 17.3381Z" fill="#F3F4F4"/>
</g>
</g>
</g>
</g>
</svg>
